HIERARCHY
ROOT Hips
{
    OFFSET   0.000000   0.000000   0.000000
    CHANNELS 6 Xposition Yposition Zposition Zrotation Xrotation Yrotation
    JOINT Chest
    {
        OFFSET   0.000000   8.007230   0.000000
        CHANNELS 3 Zrotation Xrotation Yrotation
        JOINT Chest2
        {
            OFFSET   0.000000  22.077100   0.000000
            CHANNELS 3 Zrotation Xrotation Yrotation
            JOINT Neck
            {
                OFFSET   0.000000  23.255100   0.000000
                CHANNELS 3 Zrotation Xrotation Yrotation
                JOINT Head
                {
                    OFFSET   0.000000  14.370100   1.956600
                    CHANNELS 3 Zrotation Xrotation Yrotation
                    End Site
                    {
                        OFFSET   0.000000  19.566000   0.000000
                    }
                }
            }
            JOINT LeftCollar
            {
                OFFSET   3.911900  19.017000  -0.467063
                CHANNELS 3 Zrotation Xrotation Yrotation
                JOINT LeftShoulder
                {
                    OFFSET  10.383700   0.000000   0.000000
                    CHANNELS 3 Zrotation Xrotation Yrotation
                    JOINT LeftElbow
                    {
                        OFFSET  26.662100   0.001193   0.000980
                        CHANNELS 3 Zrotation Xrotation Yrotation
                        JOINT LeftWrist
                        {
                            OFFSET  28.869000  -0.000059  -0.000082
                            CHANNELS 3 Zrotation Xrotation Yrotation
                            JOINT LeftFinger0
                            {
                                OFFSET   2.044650  -2.323450   3.252850
                                CHANNELS 3 Zrotation Xrotation Yrotation
                                JOINT LeftFinger01
                                {
                                    OFFSET   3.088130   0.000000   0.000000
                                    CHANNELS 3 Zrotation Xrotation Yrotation
                                    JOINT LeftFinger02
                                    {
                                        OFFSET   2.639460   0.000000   0.000000
                                        CHANNELS 3 Zrotation Xrotation Yrotation
                                        End Site
                                        {
                                            OFFSET   2.582190   0.000000   0.000000
                                        }
                                    }
                                }
                            }
                            JOINT LeftFinger1
                            {
                                OFFSET   8.364480   0.000000   3.252850
                                CHANNELS 3 Zrotation Xrotation Yrotation
                                JOINT LeftFinger11
                                {
                                    OFFSET   4.646930   0.000000   0.000000
                                    CHANNELS 3 Zrotation Xrotation Yrotation
                                    JOINT LeftFinger12
                                    {
                                        OFFSET   2.323470   0.000000   0.000000
                                        CHANNELS 3 Zrotation Xrotation Yrotation
                                        End Site
                                        {
                                            OFFSET   2.273050   0.000000   0.000000
                                        }
                                    }
                                }
                            }
                            JOINT LeftFinger2
                            {
                                OFFSET   8.364490   0.000016   1.078090
                                CHANNELS 3 Zrotation Xrotation Yrotation
                                JOINT LeftFinger21
                                {
                                    OFFSET   5.111610   0.000000   0.000000
                                    CHANNELS 3 Zrotation Xrotation Yrotation
                                    JOINT LeftFinger22
                                    {
                                        OFFSET   2.788150   0.000016   0.000000
                                        CHANNELS 3 Zrotation Xrotation Yrotation
                                        End Site
                                        {
                                            OFFSET   2.727660   0.000000   0.000000
                                        }
                                    }
                                }
                            }
                            JOINT LeftFinger3
                            {
                                OFFSET   7.899780   0.000015  -1.078090
                                CHANNELS 3 Zrotation Xrotation Yrotation
                                JOINT LeftFinger31
                                {
                                    OFFSET   4.646930   0.000000   0.000000
                                    CHANNELS 3 Zrotation Xrotation Yrotation
                                    JOINT LeftFinger32
                                    {
                                        OFFSET   2.323470   0.000000   0.000000
                                        CHANNELS 3 Zrotation Xrotation Yrotation
                                        End Site
                                        {
                                            OFFSET   2.273050   0.000000   0.000000
                                        }
                                    }
                                }
                            }
                            JOINT LeftFinger4
                            {
                                OFFSET   7.435090   0.000000  -3.252850
                                CHANNELS 3 Zrotation Xrotation Yrotation
                                JOINT LeftFinger41
                                {
                                    OFFSET   3.717550   0.000000   0.000000
                                    CHANNELS 3 Zrotation Xrotation Yrotation
                                    JOINT LeftFinger42
                                    {
                                        OFFSET   1.858770   0.000000   0.000000
                                        CHANNELS 3 Zrotation Xrotation Yrotation
                                        End Site
                                        {
                                            OFFSET   1.818440   0.000000   0.000000
                                        }
                                    }
                                }
                            }
                        }
                    }
                }
            }
            JOINT RightCollar
            {
                OFFSET  -3.911910  19.017000  -0.467062
                CHANNELS 3 Zrotation Xrotation Yrotation
                JOINT RightShoulder
                {
                    OFFSET -10.383700   0.000014   0.000000
                    CHANNELS 3 Zrotation Xrotation Yrotation
                    JOINT RightElbow
                    {
                        OFFSET -26.662100   0.001225   0.001091
                        CHANNELS 3 Zrotation Xrotation Yrotation
                        JOINT RightWrist
                        {
                            OFFSET -28.869000  -0.000020  -0.000085
                            CHANNELS 3 Zrotation Xrotation Yrotation
                            JOINT RightFinger0
                            {
                                OFFSET  -2.044650  -2.323490   3.252850
                                CHANNELS 3 Zrotation Xrotation Yrotation
                                JOINT RightFinger01
                                {
                                    OFFSET  -3.088130   0.000000   0.000000
                                    CHANNELS 3 Zrotation Xrotation Yrotation
                                    JOINT RightFinger02
                                    {
                                        OFFSET  -2.639460   0.000000   0.000000
                                        CHANNELS 3 Zrotation Xrotation Yrotation
                                        End Site
                                        {
                                            OFFSET  -2.582190   0.000000   0.000000
                                        }
                                    }
                                }
                            }
                            JOINT RightFinger1
                            {
                                OFFSET  -8.364480   0.000000   3.252850
                                CHANNELS 3 Zrotation Xrotation Yrotation
                                JOINT RightFinger11
                                {
                                    OFFSET  -4.646930   0.000000   0.000000
                                    CHANNELS 3 Zrotation Xrotation Yrotation
                                    JOINT RightFinger12
                                    {
                                        OFFSET  -2.323470   0.000000   0.000000
                                        CHANNELS 3 Zrotation Xrotation Yrotation
                                        End Site
                                        {
                                            OFFSET  -2.273050   0.000000   0.000000
                                        }
                                    }
                                }
                            }
                            JOINT RightFinger2
                            {
                                OFFSET  -8.364480   0.000000   1.078090
                                CHANNELS 3 Zrotation Xrotation Yrotation
                                JOINT RightFinger21
                                {
                                    OFFSET  -5.111620   0.000000   0.000000
                                    CHANNELS 3 Zrotation Xrotation Yrotation
                                    JOINT RightFinger22
                                    {
                                        OFFSET  -2.788160   0.000000   0.000000
                                        CHANNELS 3 Zrotation Xrotation Yrotation
                                        End Site
                                        {
                                            OFFSET  -2.727660   0.000000   0.000000
                                        }
                                    }
                                }
                            }
                            JOINT RightFinger3
                            {
                                OFFSET  -7.899780   0.000000  -1.078090
                                CHANNELS 3 Zrotation Xrotation Yrotation
                                JOINT RightFinger31
                                {
                                    OFFSET  -4.646930   0.000000   0.000000
                                    CHANNELS 3 Zrotation Xrotation Yrotation
                                    JOINT RightFinger32
                                    {
                                        OFFSET  -2.323470   0.000000   0.000000
                                        CHANNELS 3 Zrotation Xrotation Yrotation
                                        End Site
                                        {
                                            OFFSET  -2.273050   0.000000   0.000000
                                        }
                                    }
                                }
                            }
                            JOINT RightFinger4
                            {
                                OFFSET  -7.435090   0.000000  -3.252850
                                CHANNELS 3 Zrotation Xrotation Yrotation
                                JOINT RightFinger41
                                {
                                    OFFSET  -3.717550   0.000000   0.000000
                                    CHANNELS 3 Zrotation Xrotation Yrotation
                                    JOINT RightFinger42
                                    {
                                        OFFSET  -1.858760   0.000000   0.000000
                                        CHANNELS 3 Zrotation Xrotation Yrotation
                                        End Site
                                        {
                                            OFFSET  -1.818440   0.000000   0.000000
                                        }
                                    }
                                }
                            }
                        }
                    }
                }
            }
        }
    }
    JOINT LeftHip
    {
        OFFSET   9.783030   0.000000   0.000000
        CHANNELS 3 Zrotation Xrotation Yrotation
        JOINT LeftKnee
        {
            OFFSET   0.000063 -41.789100   0.000608
            CHANNELS 3 Zrotation Xrotation Yrotation
            JOINT LeftAnkle
            {
                OFFSET   0.000048 -41.133200  -0.000184
                CHANNELS 3 Zrotation Xrotation Yrotation
                JOINT LeftToe
                {
                    OFFSET   0.000000  -6.358960  14.674500
                    CHANNELS 3 Zrotation Xrotation Yrotation
                    End Site
                    {
                        OFFSET   0.000000   0.000000   3.913200
                    }
                }
            }
        }
    }
    JOINT RightHip
    {
        OFFSET  -9.783030   0.000000   0.000000
        CHANNELS 3 Zrotation Xrotation Yrotation
        JOINT RightKnee
        {
            OFFSET   0.000071 -41.789100   0.001239
            CHANNELS 3 Zrotation Xrotation Yrotation
            JOINT RightAnkle
            {
                OFFSET   0.000037 -41.133200  -0.000166
                CHANNELS 3 Zrotation Xrotation Yrotation
                JOINT RightToe
                {
                    OFFSET   0.000000  -6.358960  14.674500
                    CHANNELS 3 Zrotation Xrotation Yrotation
                    End Site
                    {
                        OFFSET   0.000000   0.000000   3.913200
                    }
                }
            }
        }
    }
}
MOTION
Frames: 4
Frame Time:   0.016667
 -0.153764  89.779000   0.592994  -1.053040  -3.708660  -3.928060   0.501749   4.310510  -1.058040   1.088120   8.610820  -2.163210   1.205550  -0.843704   0.014082   1.989310  -1.708640  10.630400  -8.265350  -4.285060   7.438980 -70.305400  20.808900   1.379700  -4.023000  -6.776630 -17.941500  14.047900   0.565846  12.693800  44.632100  37.027400 -76.166800 -23.681100   0.008789   0.003916  -6.832960   0.001872  -0.008119 -30.639600   7.367230 -12.214900 -25.714600  -0.002907  -0.004061 -18.000200  -0.001142  -0.001712 -28.386100   2.959460  -5.457560 -36.465900  -0.008542   0.001208 -24.286300  -0.004850  -0.002586 -27.142200   2.649290  -5.152010 -28.096800  -0.002988   0.002503 -18.712500  -0.005927  -0.000569 -26.968200   1.187550  -2.332420 -40.488600  -0.006594  -0.000735 -26.965400  -0.007360  -0.003740  12.179900   0.683914  12.252400  65.393700  11.423200  -3.933630   2.487360  -7.522420  16.365200 -16.995300 -14.172500   0.165659 -35.433800  30.955000  65.845800  34.267500  -0.003422  -0.001297  12.133800  -0.006047   0.007038  32.003900   1.763610   2.818710  26.219000   0.004967   0.001129  18.347200   0.003274   0.006711  27.518100  -1.268460  -2.433320  29.417400  -0.000889   0.002079  19.592000  -0.003340   0.003727  27.853200  -3.207150  -6.045440  32.093600  -0.002638   0.006105  21.385900   0.001966   0.004282  37.762000  -5.436860  -6.973600  57.140300  -0.000725   0.001507  38.046700   0.007450   0.001090   1.015520   2.952800   3.313360   1.018150   2.687640  12.401900  -5.247700  -3.506340   5.536050  -0.000000   0.000000   0.000000   3.460260   1.007010  -4.413570  -1.413770   5.323140  -6.386780  -9.524800  -1.848680   5.315820   0.000000   0.000000   0.000000
 -0.149268  89.779100   0.579447  -1.054080  -3.729520  -3.922780   0.498844   4.329170  -1.055760   1.082510   8.648200  -2.158670   1.205670  -0.834038   0.014086   1.987410  -1.689210  10.623400  -8.263980  -4.300090   7.432520 -70.289700  20.844700   1.360420  -4.023380  -6.797540 -17.944200  14.073900   0.549660  12.687200  44.613100  37.004700 -76.162700 -23.677600   0.008784   0.003903  -6.833950   0.001872  -0.008111 -30.656900   7.383470 -12.230400 -25.731200  -0.002906  -0.004061 -18.011900  -0.001142  -0.001718 -28.389300   2.973630  -5.482720 -36.513700  -0.008542   0.001209 -24.318100  -0.004851  -0.002586 -27.149600   2.658680  -5.168130 -28.133600  -0.002981   0.002505 -18.737000  -0.005922  -0.000568 -26.993000   1.198190  -2.350280 -40.526400  -0.006591  -0.000733 -26.990600  -0.007359  -0.003737  12.177200   0.668271  12.252800  65.400500  11.426500  -3.933280   2.494080  -7.522490  16.355200 -16.984400 -14.167300   0.175425 -35.450100  30.978300  65.865200  34.256600  -0.003423  -0.001284  12.128800  -0.006046   0.007031  32.002800   1.773780   2.835870  26.218900   0.004964   0.001128  18.347200   0.003272   0.006712  27.519000  -1.257370  -2.412220  29.406300  -0.000877   0.002074  19.584600  -0.003342   0.003724  27.855100  -3.198160  -6.028410  32.095800  -0.002635   0.006103  21.385800   0.001963   0.004281  37.763100  -5.429040  -6.963710  57.140400  -0.000730   0.001509  38.049500   0.007448   0.001094   1.014490   2.972030   3.313450   1.018150   2.676720  12.402000  -5.248370  -3.497390   5.536180   0.000000   0.000000  -0.000000   3.460250   1.008070  -4.412970  -1.423200   5.344040  -6.377790  -9.522570  -1.874080   5.311360  -0.000000   0.000000   0.000000
 -0.142109  89.779300   0.556971  -1.055980  -3.766410  -3.914510   0.493949   4.361220  -1.052180   1.073080   8.712430  -2.151520   1.205870  -0.817244   0.014099   1.985120  -1.655330  10.610800  -8.261950  -4.322630   7.422980 -70.260200  20.902300   1.324460  -4.025170  -6.832750 -17.952700  14.103100   0.519377  12.674800  44.580400  36.982100 -76.158600 -23.674200   0.008778   0.003890  -6.837090   0.001871  -0.008103 -30.684100   7.399710 -12.245900 -25.755600  -0.002905  -0.004061 -18.028900  -0.001142  -0.001732 -28.393000   2.987790  -5.507890 -36.579700  -0.008541   0.001211 -24.362100  -0.004853  -0.002585 -27.160400   2.668060  -5.184240 -28.184600  -0.002965   0.002510 -18.771000  -0.005907  -0.000565 -27.027500   1.208830  -2.368140 -40.578700  -0.006581  -0.000727 -27.025400  -0.007357  -0.003732  12.172400   0.644125  12.253100  65.407600  11.441000  -3.930700   2.502670  -7.522770  16.339600 -16.971700 -14.162000   0.192405 -35.472400  31.010500  65.892400  34.242100  -0.003425  -0.001270  12.121100  -0.006044   0.007025  32.001300   1.788510   2.860470  26.218700   0.004958   0.001124  18.347200   0.003267   0.006713  27.520300  -1.241180  -2.381380  29.395200  -0.000848   0.002060  19.577200  -0.003348   0.003713  27.857800  -3.185130  -6.003640  32.100500  -0.002624   0.006099  21.385700   0.001956   0.004276  37.765200  -5.417110  -6.947780  57.141500  -0.000741   0.001518  38.056200   0.007442   0.001104   1.013320   3.000110   3.313560   1.016910   2.665800  12.402100  -5.249430  -3.483140   5.536340   0.000000   0.000000   0.000000   3.460430   1.013190  -4.408730  -1.437980   5.377320  -6.368920  -9.519370  -1.911420   5.301680  -0.000000   0.000000  -0.000000
 -0.137230  89.778100   0.538971  -1.057840  -3.800470  -3.909170   0.489716   4.389390  -1.049610   1.064970   8.768850  -2.146440   1.206050  -0.803022   0.014122   1.985650  -1.626410  10.598600  -8.260770  -4.335720   7.418300 -70.227600  20.944900   1.286870  -4.029070  -6.862820 -17.968100  14.102500   0.479179  12.661000  44.570500  36.995500 -76.179800 -23.687200   0.008788   0.003921  -6.844640   0.001866  -0.008106 -30.702200   7.399490 -12.236800 -25.769800  -0.002905  -0.004063 -18.038400  -0.001146  -0.001750 -28.395000   2.979980  -5.493120 -36.604800  -0.008541   0.001223 -24.378800  -0.004857  -0.002579 -27.165800   2.662580  -5.173280 -28.204300  -0.002941   0.002523 -18.784000  -0.005884  -0.000558 -27.041100   1.205850  -2.361200 -40.598800  -0.006569  -0.000714 -27.038800  -0.007355  -0.003726  12.167800   0.628899  12.250700  65.402400  11.472400  -3.918920   2.504500  -7.523980  16.328500 -16.974200 -14.174600   0.208295 -35.479900  31.023100  65.904300  34.239000  -0.003416  -0.001275  12.116300  -0.006044   0.007030  32.000600   1.794980   2.870590  26.218500   0.004949   0.001115  18.348800   0.003259   0.006714  27.520800  -1.234290  -2.368140  29.396700  -0.000806   0.002040  19.578200  -0.003358   0.003695  27.858700  -3.180200  -5.994110  32.105100  -0.002606   0.006093  21.386000   0.001944   0.004266  37.775100  -5.411140  -6.937480  57.155100  -0.000759   0.001534  38.066900   0.007431   0.001121   1.013650   3.010370   3.308650   1.012880   2.676290  12.401800  -5.250240  -3.473370   5.536360  -0.000000   0.000000  -0.000000   3.460850   1.023700  -4.395720  -1.448900   5.401720  -6.369640  -9.517960  -1.929830   5.285230   0.000000   0.000000  -0.000000
